<mxfile host="app.diagrams.net" modified="2022-11-29T09:15:17.027Z" agent="5.0 (Windows NT 10.0; Win64; x64) AppleWebKit/537.36 (KHTML, like Gecko) Chrome/107.0.0.0 Safari/537.36" version="20.6.0" etag="kDpl-6mN9gZQMytJtOPO" type="github">
  <diagram id="-lAoNpJ7Cfl-uhiiSkj9" name="Page-1">
    <mxGraphModel dx="1221" dy="681" grid="1" gridSize="10" guides="1" tooltips="1" connect="1" arrows="1" fold="1" page="1" pageScale="1" pageWidth="850" pageHeight="1100" math="0" shadow="0">
      <root>
        <mxCell id="0" />
        <mxCell id="1" parent="0" />
        <mxCell id="rJVxBi8vtr6cw6ftYg3W-8" value="" style="edgeStyle=orthogonalEdgeStyle;rounded=0;orthogonalLoop=1;jettySize=auto;html=1;" edge="1" parent="1" source="rJVxBi8vtr6cw6ftYg3W-1" target="rJVxBi8vtr6cw6ftYg3W-3">
          <mxGeometry relative="1" as="geometry" />
        </mxCell>
        <mxCell id="rJVxBi8vtr6cw6ftYg3W-1" value="start" style="ellipse;whiteSpace=wrap;html=1;" vertex="1" parent="1">
          <mxGeometry x="70" y="40" width="120" height="80" as="geometry" />
        </mxCell>
        <mxCell id="rJVxBi8vtr6cw6ftYg3W-9" value="" style="edgeStyle=orthogonalEdgeStyle;rounded=0;orthogonalLoop=1;jettySize=auto;html=1;" edge="1" parent="1" source="rJVxBi8vtr6cw6ftYg3W-3" target="rJVxBi8vtr6cw6ftYg3W-4">
          <mxGeometry relative="1" as="geometry" />
        </mxCell>
        <mxCell id="rJVxBi8vtr6cw6ftYg3W-3" value="เลขที่จะชนะ&lt;br&gt;WIN = 3" style="shape=parallelogram;perimeter=parallelogramPerimeter;whiteSpace=wrap;html=1;fixedSize=1;" vertex="1" parent="1">
          <mxGeometry x="230" y="50" width="120" height="60" as="geometry" />
        </mxCell>
        <mxCell id="rJVxBi8vtr6cw6ftYg3W-10" value="" style="edgeStyle=orthogonalEdgeStyle;rounded=0;orthogonalLoop=1;jettySize=auto;html=1;" edge="1" parent="1" source="rJVxBi8vtr6cw6ftYg3W-4" target="rJVxBi8vtr6cw6ftYg3W-5">
          <mxGeometry relative="1" as="geometry" />
        </mxCell>
        <mxCell id="rJVxBi8vtr6cw6ftYg3W-4" value="กรอกเลข&lt;br&gt;x" style="shape=parallelogram;perimeter=parallelogramPerimeter;whiteSpace=wrap;html=1;fixedSize=1;" vertex="1" parent="1">
          <mxGeometry x="390" y="50" width="120" height="60" as="geometry" />
        </mxCell>
        <mxCell id="rJVxBi8vtr6cw6ftYg3W-11" value="false" style="edgeStyle=orthogonalEdgeStyle;rounded=0;orthogonalLoop=1;jettySize=auto;html=1;exitX=1;exitY=0.5;exitDx=0;exitDy=0;entryX=0;entryY=0.5;entryDx=0;entryDy=0;" edge="1" parent="1" source="rJVxBi8vtr6cw6ftYg3W-5" target="rJVxBi8vtr6cw6ftYg3W-6">
          <mxGeometry relative="1" as="geometry" />
        </mxCell>
        <mxCell id="rJVxBi8vtr6cw6ftYg3W-13" value="true" style="edgeStyle=orthogonalEdgeStyle;rounded=0;orthogonalLoop=1;jettySize=auto;html=1;exitX=0.5;exitY=1;exitDx=0;exitDy=0;entryX=0.5;entryY=0;entryDx=0;entryDy=0;" edge="1" parent="1" source="rJVxBi8vtr6cw6ftYg3W-5" target="rJVxBi8vtr6cw6ftYg3W-7">
          <mxGeometry relative="1" as="geometry" />
        </mxCell>
        <mxCell id="rJVxBi8vtr6cw6ftYg3W-5" value="x &amp;lt; 10" style="rhombus;whiteSpace=wrap;html=1;" vertex="1" parent="1">
          <mxGeometry x="410" y="160" width="80" height="80" as="geometry" />
        </mxCell>
        <mxCell id="rJVxBi8vtr6cw6ftYg3W-12" style="edgeStyle=orthogonalEdgeStyle;rounded=0;orthogonalLoop=1;jettySize=auto;html=1;exitX=0.5;exitY=0;exitDx=0;exitDy=0;entryX=1;entryY=0.5;entryDx=0;entryDy=0;" edge="1" parent="1" source="rJVxBi8vtr6cw6ftYg3W-6" target="rJVxBi8vtr6cw6ftYg3W-4">
          <mxGeometry relative="1" as="geometry" />
        </mxCell>
        <mxCell id="rJVxBi8vtr6cw6ftYg3W-6" value="กรุณากรอกเลขภายใน 0-10" style="rounded=0;whiteSpace=wrap;html=1;" vertex="1" parent="1">
          <mxGeometry x="550" y="110" width="120" height="60" as="geometry" />
        </mxCell>
        <mxCell id="rJVxBi8vtr6cw6ftYg3W-17" value="true" style="edgeStyle=orthogonalEdgeStyle;rounded=0;orthogonalLoop=1;jettySize=auto;html=1;exitX=0;exitY=0.5;exitDx=0;exitDy=0;entryX=1;entryY=0.5;entryDx=0;entryDy=0;" edge="1" parent="1" source="rJVxBi8vtr6cw6ftYg3W-7" target="rJVxBi8vtr6cw6ftYg3W-14">
          <mxGeometry relative="1" as="geometry" />
        </mxCell>
        <mxCell id="rJVxBi8vtr6cw6ftYg3W-19" value="false" style="edgeStyle=orthogonalEdgeStyle;rounded=0;orthogonalLoop=1;jettySize=auto;html=1;exitX=1;exitY=0.5;exitDx=0;exitDy=0;entryX=0;entryY=0.5;entryDx=0;entryDy=0;" edge="1" parent="1" source="rJVxBi8vtr6cw6ftYg3W-7" target="rJVxBi8vtr6cw6ftYg3W-15">
          <mxGeometry relative="1" as="geometry" />
        </mxCell>
        <mxCell id="rJVxBi8vtr6cw6ftYg3W-7" value="x = WIN" style="rhombus;whiteSpace=wrap;html=1;" vertex="1" parent="1">
          <mxGeometry x="410" y="310" width="80" height="80" as="geometry" />
        </mxCell>
        <mxCell id="rJVxBi8vtr6cw6ftYg3W-18" style="edgeStyle=orthogonalEdgeStyle;rounded=0;orthogonalLoop=1;jettySize=auto;html=1;exitX=0.5;exitY=1;exitDx=0;exitDy=0;entryX=0.5;entryY=0;entryDx=0;entryDy=0;" edge="1" parent="1" source="rJVxBi8vtr6cw6ftYg3W-14" target="rJVxBi8vtr6cw6ftYg3W-16">
          <mxGeometry relative="1" as="geometry" />
        </mxCell>
        <mxCell id="rJVxBi8vtr6cw6ftYg3W-14" value="ชนะ" style="rounded=0;whiteSpace=wrap;html=1;" vertex="1" parent="1">
          <mxGeometry x="190" y="320" width="120" height="60" as="geometry" />
        </mxCell>
        <mxCell id="rJVxBi8vtr6cw6ftYg3W-20" value="loop&lt;br&gt;" style="edgeStyle=orthogonalEdgeStyle;rounded=0;orthogonalLoop=1;jettySize=auto;html=1;exitX=1;exitY=0.5;exitDx=0;exitDy=0;entryX=0.5;entryY=0;entryDx=0;entryDy=0;" edge="1" parent="1" source="rJVxBi8vtr6cw6ftYg3W-15" target="rJVxBi8vtr6cw6ftYg3W-4">
          <mxGeometry x="-0.4458" relative="1" as="geometry">
            <Array as="points">
              <mxPoint x="740" y="350" />
              <mxPoint x="740" y="30" />
              <mxPoint x="450" y="30" />
            </Array>
            <mxPoint as="offset" />
          </mxGeometry>
        </mxCell>
        <mxCell id="rJVxBi8vtr6cw6ftYg3W-15" value="แพ้" style="rounded=0;whiteSpace=wrap;html=1;" vertex="1" parent="1">
          <mxGeometry x="600" y="320" width="120" height="60" as="geometry" />
        </mxCell>
        <mxCell id="rJVxBi8vtr6cw6ftYg3W-16" value="end" style="ellipse;whiteSpace=wrap;html=1;" vertex="1" parent="1">
          <mxGeometry x="190" y="430" width="120" height="80" as="geometry" />
        </mxCell>
      </root>
    </mxGraphModel>
  </diagram>
</mxfile>
